<svg width="28" height="30" viewBox="0 0 28 30" fill="none" xmlns="http://www.w3.org/2000/svg">
<path d="M14.3967 28.1339L13.7261 26.7921L13.7261 26.7922L14.3967 28.1339ZM13.6038 28.1339L14.2744 26.7922L14.2744 26.7921L13.6038 28.1339ZM24.0269 13.517C24.0269 17.2402 22.0543 20.2778 19.6767 22.586C17.3039 24.8896 14.674 26.3184 13.7261 26.7921L15.0672 29.4757C16.1454 28.9368 19.0807 27.3459 21.7664 24.7385C24.4474 22.1356 27.0269 18.371 27.0269 13.517H24.0269ZM14.0002 3.5C19.539 3.5 24.0269 7.98594 24.0269 13.517H27.0269C27.0269 6.32673 21.1935 0.5 14.0002 0.5V3.5ZM3.97363 13.517C3.97363 7.98594 8.46152 3.5 14.0002 3.5V0.5C6.80703 0.5 0.973633 6.32673 0.973633 13.517H3.97363ZM14.2744 26.7921C13.3264 26.3184 10.6966 24.8896 8.32377 22.586C5.94623 20.2778 3.97363 17.2402 3.97363 13.517H0.973633C0.973633 18.371 3.55305 22.1356 6.23408 24.7385C8.91983 27.3459 11.8551 28.9368 12.9333 29.4757L14.2744 26.7921ZM13.7261 26.7922C13.8006 26.7549 13.8949 26.7294 14.0002 26.7294C14.1055 26.7294 14.1999 26.7549 14.2744 26.7922L12.9333 29.4757C13.61 29.8139 14.3905 29.8139 15.0672 29.4757L13.7261 26.7922ZM17.4402 13.517C17.4402 15.4134 15.9013 16.9528 14.0002 16.9528V19.9528C17.5558 19.9528 20.4402 17.0726 20.4402 13.517H17.4402ZM14.0002 10.0811C15.9013 10.0811 17.4402 11.6206 17.4402 13.517H20.4402C20.4402 9.96139 17.5558 7.08114 14.0002 7.08114V10.0811ZM10.5603 13.517C10.5603 11.6206 12.0992 10.0811 14.0002 10.0811V7.08114C10.4447 7.08114 7.56027 9.96139 7.56027 13.517H10.5603ZM14.0002 16.9528C12.0992 16.9528 10.5603 15.4134 10.5603 13.517H7.56027C7.56027 17.0726 10.4447 19.9528 14.0002 19.9528V16.9528Z" fill="#5A53B3"/>
</svg>
