<svg width="26" height="22" viewBox="0 0 26 22" fill="none" xmlns="http://www.w3.org/2000/svg">
<path d="M12.7998 4.40039V20.0004" stroke="#5A53B3" stroke-width="3.5" stroke-linecap="round"/>
<path d="M23.5996 4.40039L23.5996 20.0004" stroke="#5A53B3" stroke-width="3.5" stroke-linecap="round"/>
<path d="M2 4.40039L2 20.0004" stroke="#5A53B3" stroke-width="3.5" stroke-linecap="round"/>
<path d="M23.5998 19.9996C23.5998 19.9996 22.3998 17.5996 18.1998 17.5996C13.9998 17.5996 12.7998 19.9996 12.7998 19.9996" stroke="#5A53B3" stroke-width="3.5" stroke-linecap="round"/>
<path d="M12.8 19.9996C12.8 19.9996 11.6 17.5996 7.4 17.5996C3.2 17.5996 2 19.9996 2 19.9996" stroke="#5A53B3" stroke-width="3.5" stroke-linecap="round"/>
<path d="M23.5998 4.4C23.5998 4.4 22.3998 2 18.1998 2C13.9998 2 12.7998 4.4 12.7998 4.4" stroke="#5A53B3" stroke-width="3.5" stroke-linecap="round"/>
<path d="M12.8 4.4C12.8 4.4 11.6 2 7.4 2C3.2 2 2 4.4 2 4.4" stroke="#5A53B3" stroke-width="3.5" stroke-linecap="round"/>
</svg>
